adventprofmm_reg_krn_t1_1.ufo
<glyph name="quotedbl" format="1">
  <advance width="218"/>
  <unicode hex="0022"/>
  <outline>
    <contour>
      <point x="139" y="637" type="curve"/>
      <point x="152" y="533" type="line"/>
      <point x="188" y="533" type="line"/>
      <point x="201" y="637" type="line"/>
      <point x="201" y="680"/>
      <point x="139" y="680"/>
    </contour>
    <contour>
      <point x="16" y="637" type="curve"/>
      <point x="29" y="533" type="line"/>
      <point x="65" y="533" type="line"/>
      <point x="78" y="637" type="line"/>
      <point x="78" y="680"/>
      <point x="16" y="680"/>
    </contour>
  </outline>
</glyph>
<glyph name="H" format="1">
  <advance width="431"/>
  <unicode hex="0048"/>
  <outline>
    <contour>
      <point x="71" y="635" type="line"/>
      <point x="20" y="635" type="line"/>
      <point x="20" y="0" type="line"/>
      <point x="71" y="0" type="line"/>
      <point x="71" y="324" type="line"/>
      <point x="359" y="324" type="line"/>
      <point x="359" y="0" type="line"/>
      <point x="410" y="0" type="line"/>
      <point x="410" y="635" type="line"/>
      <point x="359" y="635" type="line"/>
      <point x="359" y="374" type="line"/>
      <point x="71" y="374" type="line"/>
    </contour>
  </outline>
</glyph>
<glyph name="J" format="1">
  <advance width="155"/>
  <unicode hex="004A"/>
  <outline>
    <contour>
      <point x="135" y="107" type="curve" smooth="yes"/>
      <point x="135" y="635" type="line"/>
      <point x="23" y="635" type="line"/>
      <point x="23" y="590" type="line"/>
      <point x="83" y="588" type="line"/>
      <point x="83" y="103" type="line" smooth="yes"/>
      <point x="83" y="31"/>
      <point x="49" y="0"/>
      <point x="9" y="0" type="curve"/>
      <point x="21" y="-34" type="line"/>
      <point x="60" y="-34"/>
      <point x="90" y="-19"/>
      <point x="109" y="9" type="curve" smooth="yes"/>
      <point x="126" y="33"/>
      <point x="135" y="66"/>
    </contour>
  </outline>
</glyph>
<glyph name="T" format="1">
  <advance width="345"/>
  <unicode hex="0054"/>
  <outline>
    <contour>
      <point x="354" y="635" type="line"/>
      <point x="-11" y="635" type="line"/>
      <point x="-11" y="589" type="line"/>
      <point x="144" y="589" type="line"/>
      <point x="144" y="0" type="line"/>
      <point x="194" y="0" type="line"/>
      <point x="194" y="589" type="line"/>
      <point x="354" y="589" type="line"/>
    </contour>
  </outline>
</glyph>
<glyph name="grave" format="1">
  <advance width="216"/>
  <unicode hex="0060"/>
  <outline>
    <contour>
      <point x="104" y="650" type="line"/>
      <point x="99" y="667"/>
      <point x="80" y="677"/>
      <point x="64" y="668" type="curve" smooth="yes"/>
      <point x="48" y="659"/>
      <point x="47" y="638"/>
      <point x="58" y="625" type="curve"/>
      <point x="106" y="553" type="line"/>
      <point x="139" y="553" type="line"/>
    </contour>
  </outline>
</glyph>
<glyph name="k" format="1">
  <advance width="356"/>
  <unicode hex="006B"/>
  <outline>
    <contour>
      <point x="155" y="319" type="curve"/>
      <point x="289" y="436" type="line"/>
      <point x="253" y="471" type="line"/>
      <point x="71" y="304" type="line"/>
      <point x="71" y="635" type="line"/>
      <point x="20" y="635" type="line"/>
      <point x="20" y="0" type="line"/>
      <point x="71" y="0" type="line"/>
      <point x="71" y="247" type="line"/>
      <point x="118" y="287" type="line"/>
      <point x="292" y="0" type="line"/>
      <point x="353" y="0" type="line"/>
      <point x="262" y="144"/>
      <point x="195" y="251"/>
    </contour>
  </outline>
</glyph>
<glyph name="registered" format="1">
  <advance width="607"/>
  <unicode hex="00AE"/>
  <outline>
    <contour>
      <point x="590" y="170" type="curve" smooth="yes"/>
      <point x="590" y="296" type="line" smooth="yes"/>
      <point x="590" y="451"/>
      <point x="470" y="528"/>
      <point x="303" y="529" type="curve" smooth="yes"/>
      <point x="136" y="528"/>
      <point x="16" y="451"/>
      <point x="16" y="296" type="curve" smooth="yes"/>
      <point x="16" y="170" type="line" smooth="yes"/>
      <point x="16" y="15"/>
      <point x="136" y="-62"/>
      <point x="303" y="-63" type="curve" smooth="yes"/>
      <point x="470" y="-62"/>
      <point x="590" y="15"/>
    </contour>
    <contour>
      <point x="535" y="274" type="curve" smooth="yes"/>
      <point x="535" y="192" type="line" smooth="yes"/>
      <point x="535" y="44"/>
      <point x="462" y="-12"/>
      <point x="303" y="-14" type="curve" smooth="yes"/>
      <point x="144" y="-12"/>
      <point x="70" y="44"/>
      <point x="70" y="192" type="curve" smooth="yes"/>
      <point x="70" y="274" type="line" smooth="yes"/>
      <point x="70" y="422"/>
      <point x="144" y="478"/>
      <point x="303" y="480" type="curve" smooth="yes"/>
      <point x="462" y="478"/>
      <point x="535" y="422"/>
    </contour>
    <contour>
      <point x="152" y="402" type="line"/>
      <point x="152" y="54" type="line"/>
      <point x="200" y="54" type="line"/>
      <point x="200" y="160" type="line"/>
      <point x="335" y="160" type="line"/>
      <point x="387" y="54" type="line"/>
      <point x="445" y="54" type="line"/>
      <point x="388" y="168" type="line"/>
      <point x="424" y="179"/>
      <point x="456" y="208"/>
      <point x="455" y="283" type="curve" smooth="yes"/>
      <point x="454" y="391"/>
      <point x="385" y="402"/>
      <point x="337" y="402" type="curve" smooth="yes"/>
    </contour>
    <contour>
      <point x="340" y="211" type="curve" smooth="yes"/>
      <point x="200" y="211" type="line"/>
      <point x="200" y="353" type="line"/>
      <point x="340" y="353" type="line" smooth="yes"/>
      <point x="388" y="353"/>
      <point x="408" y="332"/>
      <point x="408" y="282" type="curve" smooth="yes"/>
      <point x="408" y="233"/>
      <point x="386" y="211"/>
    </contour>
  </outline>
</glyph>
<glyph name="guillemotright" format="1">
  <advance width="435"/>
  <unicode hex="00BB"/>
  <outline>
    <contour>
      <point x="49" y="72" type="line"/>
      <point x="219" y="242" type="line"/>
      <point x="49" y="412" type="line"/>
      <point x="16" y="378" type="line"/>
      <point x="152" y="242" type="line"/>
      <point x="18" y="103" type="line"/>
    </contour>
    <contour>
      <point x="249" y="72" type="line"/>
      <point x="418" y="242" type="line"/>
      <point x="249" y="412" type="line"/>
      <point x="215" y="378" type="line"/>
      <point x="351" y="242" type="line"/>
      <point x="217" y="103" type="line"/>
    </contour>
  </outline>
</glyph>
<glyph name="Iacute" format="1">
  <advance width="163"/>
  <unicode hex="00CD"/>
  <outline>
    <contour>
      <point x="64" y="0" type="line"/>
      <point x="115" y="0" type="line"/>
      <point x="115" y="635" type="line"/>
      <point x="2" y="635" type="line"/>
      <point x="2" y="590" type="line"/>
      <point x="64" y="588" type="line"/>
    </contour>
    <contour>
      <point x="105" y="770" type="curve" smooth="yes"/>
      <point x="71" y="673" type="line"/>
      <point x="103" y="673" type="line"/>
      <point x="151" y="745" type="line"/>
      <point x="163" y="758"/>
      <point x="161" y="779"/>
      <point x="145" y="788" type="curve" smooth="yes"/>
      <point x="129" y="797"/>
      <point x="111" y="787"/>
    </contour>
  </outline>
</glyph>
<glyph name="udieresis" format="1">
  <advance width="367"/>
  <unicode hex="00FC"/>
  <outline>
    <contour>
      <point x="298" y="44" type="curve"/>
      <point x="298" y="0" type="line"/>
      <point x="349" y="0" type="line"/>
      <point x="349" y="454" type="line"/>
      <point x="298" y="454" type="line"/>
      <point x="298" y="156" type="line" smooth="yes"/>
      <point x="298" y="92"/>
      <point x="247" y="40"/>
      <point x="183" y="40" type="curve" smooth="yes"/>
      <point x="125" y="40"/>
      <point x="65" y="62"/>
      <point x="65" y="145" type="curve" smooth="yes"/>
      <point x="65" y="454" type="line"/>
      <point x="14" y="454" type="line"/>
      <point x="14" y="142" type="line" smooth="yes"/>
      <point x="14" y="39"/>
      <point x="71" y="-9"/>
      <point x="172" y="-9" type="curve" smooth="yes"/>
      <point x="217" y="-9"/>
      <point x="267" y="8"/>
    </contour>
    <contour>
      <point x="254" y="578" type="curve" smooth="yes"/>
      <point x="237" y="578"/>
      <point x="223" y="564"/>
      <point x="223" y="547" type="curve" smooth="yes"/>
      <point x="223" y="530"/>
      <point x="237" y="517"/>
      <point x="254" y="517" type="curve" smooth="yes"/>
      <point x="270" y="517"/>
      <point x="284" y="530"/>
      <point x="284" y="547" type="curve" smooth="yes"/>
      <point x="284" y="564"/>
      <point x="270" y="578"/>
    </contour>
    <contour>
      <point x="110" y="578" type="curve" smooth="yes"/>
      <point x="93" y="578"/>
      <point x="80" y="564"/>
      <point x="80" y="547" type="curve" smooth="yes"/>
      <point x="80" y="530"/>
      <point x="93" y="517"/>
      <point x="110" y="517" type="curve" smooth="yes"/>
      <point x="127" y="517"/>
      <point x="140" y="530"/>
      <point x="140" y="547" type="curve" smooth="yes"/>
      <point x="140" y="564"/>
      <point x="127" y="578"/>
    </contour>
  </outline>
</glyph>
<glyph name="thorn" format="1">
  <advance width="372"/>
  <unicode hex="00FE"/>
  <outline>
    <contour>
      <point x="71" y="412" type="curve"/>
      <point x="71" y="635" type="line"/>
      <point x="20" y="635" type="line"/>
      <point x="20" y="0" type="line"/>
      <point x="71" y="0" type="line"/>
      <point x="71" y="168" type="line"/>
      <point x="95" y="129"/>
      <point x="150" y="105"/>
      <point x="194" y="105" type="curve" smooth="yes"/>
      <point x="295" y="105"/>
      <point x="363" y="173"/>
      <point x="363" y="282" type="curve" smooth="yes"/>
      <point x="363" y="384"/>
      <point x="297" y="461"/>
      <point x="197" y="461" type="curve" smooth="yes"/>
      <point x="145" y="461"/>
      <point x="105" y="445"/>
    </contour>
    <contour>
      <point x="193" y="415" type="curve" smooth="yes"/>
      <point x="259" y="415"/>
      <point x="312" y="378"/>
      <point x="312" y="287" type="curve" smooth="yes"/>
      <point x="312" y="197"/>
      <point x="264" y="154"/>
      <point x="192" y="154" type="curve" smooth="yes"/>
      <point x="121" y="154"/>
      <point x="72" y="200"/>
      <point x="72" y="294" type="curve" smooth="yes"/>
      <point x="76" y="377"/>
      <point x="129" y="415"/>
    </contour>
  </outline>
</glyph>
<glyph name="Hbar" format="1">
  <advance width="496"/>
  <unicode hex="0126"/>
  <outline>
    <contour>
      <point x="392" y="0" type="line"/>
      <point x="443" y="0" type="line"/>
      <point x="443" y="453" type="line"/>
      <point x="485" y="453" type="line"/>
      <point x="485" y="502" type="line"/>
      <point x="443" y="502" type="line"/>
      <point x="443" y="635" type="line"/>
      <point x="392" y="635" type="line"/>
      <point x="392" y="502" type="line"/>
      <point x="104" y="502" type="line"/>
      <point x="104" y="635" type="line"/>
      <point x="53" y="635" type="line"/>
      <point x="53" y="502" type="line"/>
      <point x="8" y="502" type="line"/>
      <point x="8" y="453" type="line"/>
      <point x="53" y="453" type="line"/>
      <point x="53" y="0" type="line"/>
      <point x="104" y="0" type="line"/>
      <point x="104" y="324" type="line"/>
      <point x="392" y="324" type="line"/>
    </contour>
    <contour>
      <point x="104" y="374" type="line"/>
      <point x="104" y="453" type="line"/>
      <point x="392" y="453" type="line"/>
      <point x="392" y="374" type="line"/>
    </contour>
  </outline>
</glyph>
<glyph name="lacute" format="1">
  <advance width="119"/>
  <unicode hex="013A"/>
  <outline>
    <contour>
      <point x="71" y="635" type="line"/>
      <point x="20" y="635" type="line"/>
      <point x="20" y="0" type="line"/>
      <point x="71" y="0" type="line"/>
    </contour>
    <contour>
      <point x="63" y="772" type="curve"/>
      <point x="28" y="675" type="line"/>
      <point x="61" y="675" type="line"/>
      <point x="109" y="747" type="line"/>
      <point x="120" y="760"/>
      <point x="119" y="781"/>
      <point x="103" y="790" type="curve" smooth="yes"/>
      <point x="87" y="799"/>
      <point x="68" y="789"/>
    </contour>
  </outline>
</glyph>
<glyph name="Lcaron" format="1">
  <advance width="406"/>
  <unicode hex="013D"/>
  <outline>
    <contour>
      <point x="401" y="45" type="line"/>
      <point x="124" y="45" type="line"/>
      <point x="124" y="635" type="line"/>
      <point x="73" y="635" type="line"/>
      <point x="73" y="0" type="line"/>
      <point x="401" y="0" type="line"/>
    </contour>
    <contour>
      <point x="-18" y="797" type="line"/>
      <point x="99" y="683" type="line"/>
      <point x="218" y="799" type="line"/>
      <point x="183" y="833" type="line"/>
      <point x="99" y="752" type="line"/>
      <point x="17" y="832" type="line"/>
    </contour>
  </outline>
</glyph>
<glyph name="Lslash" format="1">
  <advance width="434"/>
  <unicode hex="0141"/>
  <outline>
    <contour>
      <point x="428" y="45" type="line"/>
      <point x="151" y="45" type="line"/>
      <point x="151" y="338" type="line"/>
      <point x="287" y="399" type="line"/>
      <point x="266" y="444" type="line"/>
      <point x="151" y="392" type="line"/>
      <point x="151" y="635" type="line"/>
      <point x="100" y="635" type="line"/>
      <point x="100" y="369" type="line"/>
      <point x="2" y="325" type="line"/>
      <point x="22" y="280" type="line"/>
      <point x="100" y="315" type="line"/>
      <point x="100" y="0" type="line"/>
      <point x="428" y="0" type="line"/>
    </contour>
  </outline>
</glyph>
<glyph name="Ncommaaccent" format="1">
  <advance width="487"/>
  <unicode hex="0145"/>
  <outline>
    <contour>
      <point x="415" y="93" type="line"/>
      <point x="71" y="635" type="line"/>
      <point x="20" y="635" type="line"/>
      <point x="20" y="0" type="line"/>
      <point x="71" y="0" type="line"/>
      <point x="71" y="541" type="line"/>
      <point x="415" y="0" type="line"/>
      <point x="466" y="0" type="line"/>
      <point x="466" y="635" type="line"/>
      <point x="415" y="635" type="line"/>
    </contour>
    <contour>
      <point x="211" y="-180" type="curve"/>
      <point x="227" y="-191" type="line"/>
      <point x="244" y="-174"/>
      <point x="274" y="-139"/>
      <point x="274" y="-82" type="curve" smooth="yes"/>
      <point x="274" y="-64"/>
      <point x="261" y="-51"/>
      <point x="244" y="-51" type="curve" smooth="yes"/>
      <point x="227" y="-51"/>
      <point x="214" y="-65"/>
      <point x="214" y="-82" type="curve" smooth="yes"/>
      <point x="214" y="-97"/>
      <point x="225" y="-109"/>
      <point x="239" y="-112" type="curve"/>
      <point x="237" y="-131"/>
      <point x="230" y="-156"/>
    </contour>
  </outline>
</glyph>
<glyph name="zdotaccent" format="1">
  <advance width="355"/>
  <unicode hex="017C"/>
  <outline>
    <contour>
      <point x="20" y="408" type="line"/>
      <point x="261" y="408" type="line"/>
      <point x="12" y="45" type="line"/>
      <point x="12" y="0" type="line"/>
      <point x="345" y="0" type="line"/>
      <point x="345" y="46" type="line"/>
      <point x="75" y="46" type="line"/>
      <point x="326" y="409" type="line"/>
      <point x="326" y="454" type="line"/>
      <point x="20" y="454" type="line"/>
    </contour>
    <contour>
      <point x="208" y="548" type="curve" smooth="yes"/>
      <point x="208" y="565"/>
      <point x="194" y="578"/>
      <point x="178" y="578" type="curve" smooth="yes"/>
      <point x="161" y="578"/>
      <point x="147" y="565"/>
      <point x="147" y="548" type="curve" smooth="yes"/>
      <point x="147" y="531"/>
      <point x="161" y="517"/>
      <point x="178" y="517" type="curve" smooth="yes"/>
      <point x="194" y="517"/>
      <point x="208" y="531"/>
    </contour>
  </outline>
</glyph>
<glyph name="Omicrontonos" format="1">
  <advance width="425"/>
  <unicode hex="038C"/>
  <outline>
    <contour>
      <point x="28" y="460" type="curve" smooth="yes"/>
      <point x="28" y="168" type="line" smooth="yes"/>
      <point x="28" y="51"/>
      <point x="112" y="-10"/>
      <point x="219" y="-10" type="curve" smooth="yes"/>
      <point x="331" y="-10"/>
      <point x="409" y="58"/>
      <point x="409" y="168" type="curve" smooth="yes"/>
      <point x="409" y="459" type="line" smooth="yes"/>
      <point x="409" y="577"/>
      <point x="340" y="649"/>
      <point x="220" y="649" type="curve" smooth="yes"/>
      <point x="100" y="649"/>
      <point x="28" y="584"/>
    </contour>
    <contour>
      <point x="79" y="169" type="curve" smooth="yes"/>
      <point x="79" y="468" type="line" smooth="yes"/>
      <point x="79" y="556"/>
      <point x="134" y="601"/>
      <point x="218" y="601" type="curve" smooth="yes"/>
      <point x="303" y="601"/>
      <point x="359" y="556"/>
      <point x="359" y="468" type="curve" smooth="yes"/>
      <point x="359" y="169" type="line" smooth="yes"/>
      <point x="359" y="80"/>
      <point x="301" y="38"/>
      <point x="218" y="38" type="curve" smooth="yes"/>
      <point x="138" y="38"/>
      <point x="79" y="82"/>
    </contour>
    <contour>
      <point x="45" y="746" type="curve"/>
      <point x="10" y="649" type="line"/>
      <point x="42" y="649" type="line"/>
      <point x="91" y="721" type="line"/>
      <point x="102" y="734"/>
      <point x="101" y="755"/>
      <point x="85" y="764" type="curve" smooth="yes"/>
      <point x="68" y="773"/>
      <point x="50" y="763"/>
    </contour>
  </outline>
</glyph>
<glyph name="Deltagreek" format="1">
  <advance width="467"/>
  <unicode hex="0394"/>
  <outline>
    <contour>
      <point x="208" y="635" type="line"/>
      <point x="5" y="0" type="line"/>
      <point x="463" y="0" type="line"/>
      <point x="256" y="635" type="line"/>
    </contour>
    <contour>
      <point x="394" y="45" type="line"/>
      <point x="72" y="45" type="line"/>
      <point x="232" y="556" type="line"/>
    </contour>
  </outline>
</glyph>
<glyph name="Tau" format="1">
  <advance width="345"/>
  <unicode hex="03A4"/>
  <outline>
    <contour>
      <point x="354" y="635" type="line"/>
      <point x="-11" y="635" type="line"/>
      <point x="-11" y="589" type="line"/>
      <point x="143" y="589" type="line"/>
      <point x="143" y="0" type="line"/>
      <point x="194" y="0" type="line"/>
      <point x="194" y="589" type="line"/>
      <point x="354" y="589" type="line"/>
    </contour>
  </outline>
</glyph>
<glyph name="Phi" format="1">
  <advance width="506"/>
  <unicode hex="03A6"/>
  <outline>
    <contour>
      <point x="147" y="599" type="curve"/>
      <point x="120" y="640" type="line"/>
      <point x="50" y="617"/>
      <point x="14" y="560"/>
      <point x="14" y="469" type="curve" smooth="yes"/>
      <point x="14" y="204" type="line" smooth="yes"/>
      <point x="14" y="94"/>
      <point x="70" y="27"/>
      <point x="186" y="27" type="curve" smooth="yes"/>
      <point x="225" y="27" type="line"/>
      <point x="225" y="-25" type="line"/>
      <point x="277" y="-32" type="line"/>
      <point x="277" y="27" type="line"/>
      <point x="322" y="27" type="line" smooth="yes"/>
      <point x="438" y="27"/>
      <point x="491" y="94"/>
      <point x="491" y="204" type="curve" smooth="yes"/>
      <point x="491" y="463" type="line" smooth="yes"/>
      <point x="491" y="520"/>
      <point x="474" y="566"/>
      <point x="443" y="598" type="curve" smooth="yes"/>
      <point x="414" y="627"/>
      <point x="374" y="644"/>
      <point x="323" y="644" type="curve" smooth="yes"/>
      <point x="266" y="644"/>
      <point x="229" y="609"/>
      <point x="225" y="548" type="curve"/>
      <point x="225" y="72" type="line"/>
      <point x="186" y="72" type="line" smooth="yes"/>
      <point x="113" y="72"/>
      <point x="65" y="115"/>
      <point x="65" y="195" type="curve" smooth="yes"/>
      <point x="65" y="469" type="line" smooth="yes"/>
      <point x="65" y="542"/>
      <point x="93" y="586"/>
    </contour>
    <contour>
      <point x="322" y="72" type="curve" smooth="yes"/>
      <point x="277" y="72" type="line"/>
      <point x="277" y="540" type="line" smooth="yes"/>
      <point x="277" y="577"/>
      <point x="295" y="596"/>
      <point x="330" y="596" type="curve" smooth="yes"/>
      <point x="358" y="596"/>
      <point x="385" y="586"/>
      <point x="407" y="565" type="curve" smooth="yes"/>
      <point x="431" y="544"/>
      <point x="443" y="513"/>
      <point x="443" y="472" type="curve" smooth="yes"/>
      <point x="443" y="195" type="line" smooth="yes"/>
      <point x="443" y="115"/>
      <point x="395" y="72"/>
    </contour>
  </outline>
</glyph>
<glyph name="eta" format="1">
  <advance width="368"/>
  <unicode hex="03B7"/>
  <outline>
    <contour>
      <point x="302" y="311" type="curve" smooth="yes"/>
      <point x="302" y="-169" type="line"/>
      <point x="352" y="-190" type="line"/>
      <point x="352" y="314" type="line" smooth="yes"/>
      <point x="352" y="409"/>
      <point x="294" y="462"/>
      <point x="194" y="462" type="curve" smooth="yes"/>
      <point x="149" y="462"/>
      <point x="103" y="447"/>
      <point x="68" y="423" type="curve"/>
      <point x="68" y="454" type="line"/>
      <point x="17" y="454" type="line"/>
      <point x="17" y="0" type="line"/>
      <point x="68" y="0" type="line"/>
      <point x="68" y="385" type="line"/>
      <point x="105" y="406"/>
      <point x="143" y="416"/>
      <point x="184" y="416" type="curve" smooth="yes"/>
      <point x="242" y="416"/>
      <point x="302" y="393"/>
    </contour>
  </outline>
</glyph>
<glyph name="trademark" format="1">
  <advance width="370"/>
  <unicode hex="2122"/>
  <outline>
    <contour>
      <point x="166" y="465" type="line"/>
      <point x="197" y="465" type="line"/>
      <point x="197" y="592" type="line"/>
      <point x="250" y="465" type="line"/>
      <point x="269" y="465" type="line"/>
      <point x="323" y="592" type="line"/>
      <point x="323" y="465" type="line"/>
      <point x="351" y="465" type="line"/>
      <point x="351" y="635" type="line"/>
      <point x="313" y="635" type="line"/>
      <point x="260" y="510" type="line"/>
      <point x="205" y="635" type="line"/>
      <point x="15" y="635" type="line"/>
      <point x="15" y="604" type="line"/>
      <point x="79" y="604" type="line"/>
      <point x="79" y="465" type="line"/>
      <point x="109" y="465" type="line"/>
      <point x="109" y="604" type="line"/>
      <point x="166" y="604" type="line"/>
    </contour>
  </outline>
</glyph>
